# xmcd CD database file
#
# Track frame offsets:
#	150
#	21180
#	38955
#
# Disc length: 796 seconds
#
# Revision: 3
# Processed by: cddbd v1.5.1PL0 Copyright (c) Steve Scherf et al.
# Submitted via: CDex 1.50Beta7
#
DISCID=1d031a03
DTITLE=Bluem of Youth - If
DYEAR=2000
DGENRE=Rock
TTITLE0=If
TTITLE1=天気雨
TTITLE2=If (style on guitar)
EXTD=YEAR: 2000
EXTT0=
EXTT1=
EXTT2=
PLAYORDER=
